<svg xmlns="http://www.w3.org/2000/svg" viewBox="0 0 32 32" width="32" height="32" role="img" aria-label="Pigsty logo">
  <g fill="none" stroke="none">
    <path d="M 10.221582 15.96178 L 13.108335 10.96178 L 18.88184 10.96178 L 21.768593 15.96178 L 18.88184 20.96178 L 13.108335 20.96178 Z" fill="#bbb" fill-opacity=".9526367"/>
    <path d="M 10.221582 15.96178 L 13.108335 10.96178 L 18.88184 10.96178 L 21.768593 15.96178 L 18.88184 20.96178 L 13.108335 20.96178 Z" stroke="white" stroke-linecap="round" stroke-linejoin="round" stroke-width=".8973912"/>
    <path d="M 10.221582 25.966408 L 13.108335 20.966408 L 18.88184 20.966408 L 21.768593 25.966408 L 18.88184 30.966408 L 13.108335 30.966408 Z" fill="#de372c" fill-opacity=".8545852"/>
    <path d="M 10.221582 25.966408 L 13.108335 20.966408 L 18.88184 20.966408 L 21.768593 25.966408 L 18.88184 30.966408 L 13.108335 30.966408 Z" stroke="white" stroke-linecap="round" stroke-linejoin="round" stroke-width=".8973912"/>
    <path d="M 18.881968 21.001603 L 21.76872 16.001603 L 27.542226 16.001603 L 30.42898 21.001603 L 27.542226 26.001603 L 21.76872 26.001603 Z" fill="#424242" fill-opacity=".9016462"/>
    <path d="M 18.881968 21.001603 L 21.76872 16.001603 L 27.542226 16.001603 L 30.42898 21.001603 L 27.542226 26.001603 L 21.76872 26.001603 Z" stroke="white" stroke-linecap="round" stroke-linejoin="round" stroke-width=".8973912"/>
    <path d="M 18.881968 10.96801 L 21.76872 5.96801 L 27.542226 5.96801 L 30.42898 10.96801 L 27.542226 15.96801 L 21.76872 15.96801 Z" fill="#ffa269" fill-opacity=".8975772"/>
    <path d="M 18.881968 10.96801 L 21.76872 5.96801 L 27.542226 5.96801 L 30.42898 10.96801 L 27.542226 15.96801 L 21.76872 15.96801 Z" stroke="white" stroke-linecap="round" stroke-linejoin="round" stroke-width=".8973912"/>
    <path d="M 10.221582 6 L 13.108335 1 L 18.88184 1 L 21.768593 6 L 18.88184 11 L 13.108335 11 Z" fill="#419edb" fill-opacity=".8979957"/>
    <path d="M 10.221582 6 L 13.108335 1 L 18.88184 1 L 21.768593 6 L 18.88184 11 L 13.108335 11 Z" stroke="white" stroke-linecap="round" stroke-linejoin="round" stroke-width=".8973912"/>
    <path d="M 1.5322323 10.96801 L 4.418985 5.96801 L 10.19249 5.96801 L 13.079243 10.96801 L 10.19249 15.96801 L 4.418985 15.96801 Z" fill="#2f6793" fill-opacity=".9002511"/>
    <path d="M 1.5322323 10.96801 L 4.418985 5.96801 L 10.19249 5.96801 L 13.079243 10.96801 L 10.19249 15.96801 L 4.418985 15.96801 Z" stroke="white" stroke-linecap="round" stroke-linejoin="round" stroke-width=".8973912"/>
    <path d="M 1.5760946 20.988049 L 4.4628473 15.988049 L 10.236353 15.988049 L 13.123105 20.988049 L 10.236353 25.98805 L 4.4628473 25.98805 Z" fill="#53ac79" fill-opacity=".9"/>
    <path d="M 1.5760946 20.988049 L 4.4628473 15.988049 L 10.236353 15.988049 L 13.123105 20.988049 L 10.236353 25.98805 L 4.4628473 25.98805 Z" stroke="white" stroke-linecap="round" stroke-linejoin="round" stroke-width=".8973912"/>
  </g>
</svg>
